<svg width="397" height="397" viewBox="0 0 397 397" fill="none" xmlns="http://www.w3.org/2000/svg">
<rect width="397" height="397" fill="black"/>
<path d="M171.852 117.702L105.56 207.461L118.082 136.831L171.852 117.702Z" fill="white"/>
<path d="M101.141 212.611L114.399 137.567L90.0921 159.638L101.141 212.611Z" fill="white"/>
<path d="M80.5166 219.968L87.1458 162.581L69.468 189.068L80.5166 219.968Z" fill="white"/>
<path d="M54 229.533L67.2583 193.482L115.136 308.256L54 229.533Z" fill="white"/>
<path d="M104.087 275.884L83.4629 223.647L89.3555 172.146L98.1944 217.761L104.087 275.884Z" fill="white"/>
<path d="M107.033 277.355L102.614 219.233L146.808 156.696L107.033 277.355Z" fill="white"/>
<path d="M117.345 308.256L107.033 279.562L193.212 308.256H117.345Z" fill="white"/>
<path d="M109.98 308.256L54 235.419L62.1023 303.106L109.98 308.256Z" fill="white"/>
<path d="M141.652 349.457L67.9949 308.256L111.453 313.406L141.652 349.457Z" fill="white"/>
<path d="M120.292 342.835L65.7852 310.463L141.652 369.321L120.292 342.835Z" fill="white"/>
<path d="M147.545 369.321L127.657 346.514L152.701 359.021L195.422 365.643L147.545 369.321Z" fill="white"/>
<path d="M151.228 353.135L129.13 328.121L195.422 361.228L151.228 353.135Z" fill="white"/>
<path d="M209.417 366.378L157.12 372.264L230.777 373L209.417 366.378Z" fill="white"/>
<path d="M231.514 370.793L163.749 340.628L199.105 342.835L231.514 370.793Z" fill="white"/>
<path d="M236.67 368.586L207.944 343.571L280.864 355.342L236.67 368.586Z" fill="white"/>
<path d="M283.811 352.4L249.192 346.514L308.854 319.292L283.811 352.4Z" fill="white"/>
<path d="M315.483 311.934L269.079 333.271L328.742 255.283L315.483 311.934Z" fill="white"/>
<path d="M342 231.74L297.806 289.127V246.455L342 231.74Z" fill="white"/>
<path d="M199.105 306.784L109.98 277.355L115.872 260.433L199.105 306.784Z" fill="white"/>
<path d="M117.345 256.755L137.233 194.953L134.286 266.319L117.345 256.755Z" fill="white"/>
<path d="M150.491 153.753L139.442 191.275L179.954 113.288L150.491 153.753Z" fill="white"/>
<path d="M137.233 267.791L139.442 197.161L184.373 111.08L137.233 267.791Z" fill="white"/>
<path d="M139.442 269.998L149.754 235.419L176.271 290.598L139.442 269.998Z" fill="white"/>
<path d="M202.051 305.313L179.954 292.07L228.568 295.748L202.051 305.313Z" fill="white"/>
<path d="M224.885 292.07L204.261 277.355L179.954 289.127L224.885 292.07Z" fill="white"/>
<path d="M177.744 285.448L153.437 235.419L204.261 272.205L177.744 285.448Z" fill="white"/>
<path d="M151.964 231.74L164.486 186.86L204.261 266.319L151.964 231.74Z" fill="white"/>
<path d="M205.734 260.433L166.696 183.918L207.944 235.419L205.734 260.433Z" fill="white"/>
<path d="M188.793 107.755L168.169 178.767L209.417 231.74L188.793 107.755Z" fill="white"/>
<path d="M252.138 189.803L212.363 227.326L193.212 111.08L252.138 189.803Z" fill="white"/>
<path d="M258.031 141.981L221.202 136.831L266.133 176.56L258.031 141.981Z" fill="white"/>
<path d="M263.923 178.767L217.519 138.302L255.084 186.86L263.923 178.767Z" fill="white"/>
<path d="M215.309 133.888L194.685 107.755L199.105 76.5011L215.309 133.888Z" fill="white"/>
<path d="M204.261 25L199.105 69.8795L227.831 63.2579L204.261 25Z" fill="white"/>
<path d="M206.471 86.8013L200.578 72.8224L228.988 65.1308L206.471 86.8013Z" fill="white"/>
<path d="M248.455 65.1308L232.987 64.7294L239.785 85.3298L248.455 65.1308Z" fill="white"/>
<path d="M283.811 25L253.611 64.7294L278.655 77.2368L283.811 25Z" fill="white"/>
<path d="M278.655 97.1015V80.1797L250.665 66.9366L278.655 97.1015Z" fill="white"/>
<path d="M210.89 86.8013L230.777 67.6723L237.407 89.0085L210.89 86.8013Z" fill="white"/>
<path d="M241.826 89.0085L249.928 72.0867L266.87 89.0085H241.826Z" fill="white"/>
<path d="M246.246 91.9514L241.826 105.93L269.079 91.9514H246.246Z" fill="white"/>
<path d="M236.67 105.195L228.568 91.9514L206.471 89.7442L236.67 105.195Z" fill="white"/>
<path d="M238.88 104.459L232.758 91.9514H242.563L238.88 104.459Z" fill="white"/>
<path d="M216.783 130.209L206.471 93.4228L216.783 99.3087V130.209Z" fill="white"/>
<path d="M255.821 138.302L278.655 99.3087L274.235 124.323L255.821 138.302Z" fill="white"/>
<path d="M275.708 98.5729L270.552 94.1586L261.714 122.852L275.708 98.5729Z" fill="white"/>
<path d="M266.87 97.1015L248.455 105.93L258.031 122.116L266.87 97.1015Z" fill="white"/>
<path d="M219.729 125.795L220.465 100.78L230.041 105.93L219.729 125.795Z" fill="white"/>
<path d="M238.88 119.173L232.987 107.755H246.246L238.88 119.173Z" fill="white"/>
<path d="M231.514 111.08L225.621 122.852H237.407L231.514 111.08Z" fill="white"/>
<path d="M247.719 111.08L239.785 122.852H255.084L247.719 111.08Z" fill="white"/>
<path d="M219.729 131.681L221.939 127.266L240.353 137.567L219.729 131.681Z" fill="white"/>
<path d="M252.138 138.302L242.563 137.567L259.504 125.795L252.138 138.302Z" fill="white"/>
<path d="M241.09 135.359L224.148 125.795H255.821L241.09 135.359Z" fill="white"/>
</svg>
