<svg width="196" height="237" viewBox="0 0 196 237" fill="none" xmlns="http://www.w3.org/2000/svg">
<path d="M80 63.5L35 124.5L43.5 76.5L80 63.5Z" fill="white"/>
<path d="M32 128L41 77L24.5 92L32 128Z" fill="white"/>
<path d="M18 133L22.5 94L10.5 112L18 133Z" fill="white"/>
<path d="M0 139.5L9 115L41.5 193L0 139.5Z" fill="white"/>
<path d="M34 171L20 135.5L24 100.5L30 131.5L34 171Z" fill="white"/>
<path d="M36 172L33 132.5L63 90L36 172Z" fill="white"/>
<path d="M43 193L36 173.5L94.5 193H43Z" fill="white"/>
<path d="M38 193L0 143.5L5.5 189.5L38 193Z" fill="white"/>
<path d="M59.5 221L9.5 193L39 196.5L59.5 221Z" fill="white"/>
<path d="M45 216.5L8 194.5L59.5 234.5L45 216.5Z" fill="white"/>
<path d="M63.5 234.5L50 219L67 227.5L96 232L63.5 234.5Z" fill="white"/>
<path d="M66 223.5L51 206.5L96 229L66 223.5Z" fill="white"/>
<path d="M105.5 232.5L70 236.5L120 237L105.5 232.5Z" fill="white"/>
<path d="M120.5 235.5L74.5 215L98.5 216.5L120.5 235.5Z" fill="white"/>
<path d="M124 234L104.5 217L154 225L124 234Z" fill="white"/>
<path d="M156 223L132.5 219L173 200.5L156 223Z" fill="white"/>
<path d="M177.5 195.5L146 210L186.5 157L177.5 195.5Z" fill="white"/>
<path d="M195.5 141L165.5 180V151L195.5 141Z" fill="white"/>
<path d="M98.5 192L38 172L42 160.5L98.5 192Z" fill="white"/>
<path d="M43 158L56.5 116L54.5 164.5L43 158Z" fill="white"/>
<path d="M65.5 88L58 113.5L85.5 60.5L65.5 88Z" fill="white"/>
<path d="M56.5 165.5L58 117.5L88.5 59L56.5 165.5Z" fill="white"/>
<path d="M58 167L65 143.5L83 181L58 167Z" fill="white"/>
<path d="M100.5 191L85.5 182L118.5 184.5L100.5 191Z" fill="white"/>
<path d="M116 182L102 172L85.5 180L116 182Z" fill="white"/>
<path d="M84 177.5L67.5 143.5L102 168.5L84 177.5Z" fill="white"/>
<path d="M66.5 141L75 110.5L102 164.5L66.5 141Z" fill="white"/>
<path d="M103 160.5L76.5 108.5L104.5 143.5L103 160.5Z" fill="white"/>
<path d="M91.5 56.7403L77.5 105L105.5 141L91.5 56.7403Z" fill="white"/>
<path d="M134.5 112.5L107.5 138L94.5 59L134.5 112.5Z" fill="white"/>
<path d="M138.5 80L113.5 76.5L144 103.5L138.5 80Z" fill="white"/>
<path d="M142.5 105L111 77.5L136.5 110.5L142.5 105Z" fill="white"/>
<path d="M109.5 74.5L95.5 56.7403L98.5 35.5L109.5 74.5Z" fill="white"/>
<path d="M102 0.5L98.5 31L118 26.5L102 0.5Z" fill="white"/>
<path d="M103.5 42.5L99.5 33L118.785 27.7728L103.5 42.5Z" fill="white"/>
<path d="M132 27.7728L121.5 27.5L126.114 41.5L132 27.7728Z" fill="white"/>
<path d="M156 0.5L135.5 27.5L152.5 36L156 0.5Z" fill="white"/>
<path d="M152.5 49.5V38L133.5 29L152.5 49.5Z" fill="white"/>
<path d="M106.5 42.5L120 29.5L124.5 44L106.5 42.5Z" fill="white"/>
<path d="M127.5 44L133 32.5L144.5 44H127.5Z" fill="white"/>
<path d="M130.5 46L127.5 55.5L146 46H130.5Z" fill="white"/>
<path d="M124 55L118.5 46L103.5 44.5L124 55Z" fill="white"/>
<path d="M125.5 54.5L121.344 46H128L125.5 54.5Z" fill="white"/>
<path d="M110.5 72L103.5 47L110.5 51V72Z" fill="white"/>
<path d="M137 77.5L152.5 51L149.5 68L137 77.5Z" fill="white"/>
<path d="M150.5 50.5L147 47.5L141 67L150.5 50.5Z" fill="white"/>
<path d="M144.5 49.5L132 55.5L138.5 66.5L144.5 49.5Z" fill="white"/>
<path d="M112.5 69L113 52L119.5 55.5L112.5 69Z" fill="white"/>
<path d="M125.5 64.5L121.5 56.7403H130.5L125.5 64.5Z" fill="white"/>
<path d="M120.5 59L116.5 67H124.5L120.5 59Z" fill="white"/>
<path d="M131.5 59L126.114 67H136.5L131.5 59Z" fill="white"/>
<path d="M112.5 73L114 70L126.5 77L112.5 73Z" fill="white"/>
<path d="M134.5 77.5L128 77L139.5 69L134.5 77.5Z" fill="white"/>
<path d="M127 75.5L115.5 69H137L127 75.5Z" fill="white"/>
</svg>
