<svg xmlns="http://www.w3.org/2000/svg" xmlns:xlink="http://www.w3.org/1999/xlink" viewBox="0,0,256,256" width="50px" height="50px"><g fill="#ffffff" fill-rule="nonzero" stroke="none" stroke-width="1" stroke-linecap="butt" stroke-linejoin="miter" stroke-miterlimit="10" stroke-dasharray="" stroke-dashoffset="0" font-family="none" font-weight="none" font-size="none" text-anchor="none" style="mix-blend-mode: normal"><g transform="scale(5.12,5.12)"><path d="M24.50586,4.00781c-0.52538,0.00025 -1.05152,0.10359 -1.54102,0.30859l-18.74219,7.33008c-0.743,0.313 -1.22266,1.0368 -1.22266,1.8418c-0.001,0.805 0.47714,1.52952 1.24414,1.85352l18.99219,7.43359c0.377,0.16 0.78264,0.23828 1.18164,0.23828c0.385,0 0.76342,-0.0738 1.10742,-0.2168l20.24609,-7.4668c0.748,-0.312 1.23047,-1.03766 1.23047,-1.84766c-0.001,-0.81 -0.48553,-1.53337 -1.26953,-1.85937l-19.68555,-7.30859c-0.49,-0.204 -1.01564,-0.30689 -1.54102,-0.30664zM24.49805,6.00977c0.272,0 0.54745,0.05502 0.81445,0.16602l19.72852,7.29297l-20.24609,7.4668c-0.243,0.104 -0.52873,0.10428 -0.80273,-0.01172l-19.01563,-7.42383l18.72852,-7.32617l0.02344,-0.00977c0.244,-0.103 0.50453,-0.1543 0.76953,-0.1543zM1.99805,17.00195c-1.056,0 -1.99805,0.85195 -1.99805,2.00195v15.9668c0,1.159 0.95195,2.00195 2.00195,2.00195c0.296,0 0.59958,-0.06589 0.89258,-0.21289l18,-8.76172c1.531,-0.766 1.455,-2.97577 -0.125,-3.63477l-18,-7.20703c-0.256,-0.105 -0.51748,-0.1543 -0.77148,-0.1543zM48.00195,17.00195c-0.241,0 -0.48747,0.04367 -0.73047,0.13867l-19,7.36523c-0.766,0.301 -1.27148,1.03833 -1.27148,1.86133v16.63086c0,1.148 0.94005,2.00195 1.99805,2.00195c0.241,0 0.48747,-0.04367 0.73047,-0.13867l19,-7.43555c0.767,-0.3 1.27148,-1.03833 1.27148,-1.86133v-16.56055c0,-1.148 -0.94005,-2.00195 -1.99805,-2.00195zM2.00586,19.00391l0.01953,0.00977l17.99219,7.1875l-18.01758,8.76953zM48,19.00391v16.56055l-19,7.43359l-0.00586,-16.62695z"></path></g></g></svg>