<svg xmlns="http://www.w3.org/2000/svg" xmlns:xlink="http://www.w3.org/1999/xlink" viewBox="0,0,256,256" width="64px" height="64px"><g fill="#ffffff" fill-rule="nonzero" stroke="none" stroke-width="1" stroke-linecap="butt" stroke-linejoin="miter" stroke-miterlimit="10" stroke-dasharray="" stroke-dashoffset="0" font-family="none" font-weight="none" font-size="none" text-anchor="none" style="mix-blend-mode: normal"><g transform="scale(4,4)"><path d="M50.25781,1.30078c-0.25225,0.04288 -0.48844,0.18125 -0.64844,0.40625l-1.1582,1.63281c-0.32,0.451 -0.21367,1.07453 0.23633,1.39453c0.176,0.125 0.37812,0.18555 0.57813,0.18555c0.313,0 0.62041,-0.14787 0.81641,-0.42187l1.1582,-1.63086c0.32,-0.451 0.21562,-1.07453 -0.23437,-1.39453c-0.226,-0.1605 -0.4958,-0.21475 -0.74805,-0.17187zM20.57617,5.17773c-1.2873,-0.03952 -2.50264,0.22004 -3.57617,0.83984c-1.71765,0.99169 -2.82022,2.76262 -3.375,4.92773c-0.55478,2.16512 -0.60218,4.76356 -0.21875,7.66797c0.12568,0.952 0.3148,1.94807 0.5332,2.96094c-0.98535,0.31704 -1.94167,0.64882 -2.82812,1.01563c-2.70701,1.12014 -4.9336,2.46042 -6.53125,4.02344c-1.59765,1.56301 -2.58008,3.40335 -2.58008,5.38672c0,1.98337 0.98242,3.8237 2.58008,5.38672c1.59765,1.56301 3.82424,2.9033 6.53125,4.02344c0.88645,0.36681 1.84278,0.69859 2.82813,1.01563c-0.21841,1.01287 -0.40752,2.00699 -0.5332,2.95898c-0.38343,2.90441 -0.33603,5.50285 0.21875,7.66797c0.55478,2.16512 1.65735,3.93605 3.375,4.92773c1.71765,0.99169 3.80264,1.06109 5.95508,0.45898c2.15244,-0.6021 4.42642,-1.86026 6.75,-3.64453c0.76133,-0.58462 1.52725,-1.24613 2.29492,-1.94141c0.76734,0.69493 1.53393,1.35704 2.29492,1.94141c2.32357,1.78427 4.59756,3.04243 6.75,3.64453c2.15244,0.60211 4.23743,0.5327 5.95508,-0.45898c1.71765,-0.99168 2.82022,-2.76262 3.375,-4.92773c0.55478,-2.16512 0.60218,-4.76356 0.21875,-7.66797c-0.12551,-0.95071 -0.31522,-1.94561 -0.5332,-2.95703c0.98555,-0.31708 1.94151,-0.6507 2.82813,-1.01758c2.70701,-1.12014 4.9336,-2.46042 6.53125,-4.02344c1.59765,-1.56301 2.58008,-3.40335 2.58008,-5.38672c0,-1.98337 -0.98242,-3.82371 -2.58008,-5.38672c-1.59765,-1.56301 -3.82424,-2.90329 -6.53125,-4.02344c-0.88662,-0.36688 -1.84258,-0.70049 -2.82812,-1.01758c0.21805,-1.01163 0.40767,-2.00614 0.5332,-2.95703c0.38343,-2.90441 0.33603,-5.50285 -0.21875,-7.66797c-0.55478,-2.16511 -1.65735,-3.93605 -3.375,-4.92773c-1.71765,-0.99169 -3.80264,-1.06109 -5.95508,-0.45898c-2.15243,0.6021 -4.42643,1.86027 -6.75,3.64453c-0.761,0.58437 -1.52758,1.24648 -2.29492,1.94141c-0.76768,-0.69528 -1.53359,-1.35874 -2.29492,-1.94336c-2.32358,-1.78427 -4.59756,-3.04243 -6.75,-3.64453c-0.80716,-0.22579 -1.60653,-0.35715 -2.37891,-0.38086zM53.90234,5.41016c-0.12936,0.01072 -0.25886,0.04733 -0.38086,0.11133l-1.77148,0.92773c-0.489,0.257 -0.67887,0.86356 -0.42187,1.35156c0.179,0.342 0.52672,0.53516 0.88672,0.53516c0.156,0 0.31489,-0.03628 0.46289,-0.11328l1.77148,-0.92969c0.489,-0.257 0.67887,-0.86161 0.42188,-1.34961c-0.19275,-0.3675 -0.58067,-0.56536 -0.96875,-0.5332zM20.5293,7.17188c0.58173,0.02049 1.21109,0.12546 1.88672,0.31445c1.80168,0.50399 3.88732,1.62987 6.06836,3.30469c0.67687,0.51977 1.36635,1.10939 2.05664,1.73047c-1.9785,1.96439 -3.94111,4.27863 -5.82227,6.86719c-3.18228,0.3348 -6.16697,0.87821 -8.85742,1.60938c-0.19279,-0.90859 -0.35898,-1.8002 -0.4707,-2.64648c-0.35991,-2.72625 -0.2925,-5.09591 0.17188,-6.9082c0.46438,-1.81229 1.28539,-3.02819 2.4375,-3.69336c0.72007,-0.41573 1.55975,-0.61227 2.5293,-0.57812zM43.46875,7.17383c0.96955,-0.03415 1.81118,0.16239 2.53125,0.57813c1.15211,0.66517 1.97312,1.87912 2.4375,3.69141c0.46438,1.81229 0.52983,4.18391 0.16992,6.91016c-0.11171,0.84619 -0.27599,1.73606 -0.46875,2.64453c-2.69045,-0.73117 -5.67514,-1.27457 -8.85742,-1.60937c-1.88099,-2.58856 -3.8439,-4.90073 -5.82227,-6.86523c0.69027,-0.62106 1.37783,-1.21071 2.05469,-1.73047c2.18104,-1.67482 4.26668,-2.80266 6.06836,-3.30664c0.67563,-0.18899 1.30499,-0.29201 1.88672,-0.3125zM55.42188,10.50977l-1.97852,0.29688c-0.546,0.082 -0.92184,0.59267 -0.83984,1.13867c0.075,0.497 0.50128,0.85156 0.98828,0.85156c0.049,0 0.09744,-0.00472 0.14844,-0.01172l1.97852,-0.29687c0.546,-0.082 0.9238,-0.59072 0.8418,-1.13672c-0.082,-0.545 -0.59067,-0.9138 -1.13867,-0.8418zM32,13.89648c1.54848,1.53497 3.10294,3.30234 4.61914,5.26758c-1.50922,-0.09825 -3.04373,-0.16406 -4.61914,-0.16406c-1.57609,0 -3.11126,0.06573 -4.62109,0.16406c1.51655,-1.96569 3.07226,-3.73236 4.62109,-5.26758zM53.83203,15.60547c-0.549,-0.031 -1.02564,0.38845 -1.05664,0.93945c-0.033,0.552 0.38941,1.02564 0.94141,1.05664l1.99609,0.11523c0.02,0.001 0.03859,0.00195 0.05859,0.00195c0.525,0 0.96509,-0.41236 0.99609,-0.94336c0.033,-0.552 -0.38745,-1.02369 -0.93945,-1.05469zM32,21c2.12696,0 4.19327,0.1043 6.18555,0.28711c1.15424,1.63371 2.27655,3.37122 3.33984,5.21289c1.06372,1.84242 2.00774,3.68283 2.8457,5.5c-0.83796,1.81717 -1.78198,3.65758 -2.8457,5.5c-1.06329,1.84167 -2.18561,3.57918 -3.33984,5.21289c-1.99228,0.18281 -4.05859,0.28711 -6.18555,0.28711c-2.12696,0 -4.19327,-0.1043 -6.18555,-0.28711c-1.15475,-1.6343 -2.27806,-3.37045 -3.3418,-5.21289c-1.06372,-1.84242 -2.00579,-3.68478 -2.84375,-5.50195c0.83753,-1.81591 1.78079,-3.65695 2.84375,-5.49805c1.06374,-1.84245 2.18705,-3.57859 3.3418,-5.21289c1.99228,-0.18281 4.05859,-0.28711 6.18555,-0.28711zM23.19336,21.58008c-0.84005,1.25835 -1.66511,2.55503 -2.45312,3.91992c-0.78744,1.36388 -1.49668,2.72634 -2.16602,4.08203c-0.9439,-2.29579 -1.69685,-4.52422 -2.25195,-6.63281c2.10385,-0.57365 4.41064,-1.03866 6.87109,-1.36914zM40.80469,21.58008c2.46118,0.3305 4.76864,0.79534 6.87305,1.36914c-0.55511,2.10865 -1.30803,4.33891 -2.25195,6.63477c-0.66977,-1.35674 -1.37991,-2.71903 -2.16797,-4.08398c-0.78774,-1.3644 -1.61339,-2.66198 -2.45312,-3.91992zM14.40234,23.52539c0.7121,2.6956 1.7339,5.5513 3.03516,8.47461c-1.3013,2.9234 -2.32305,5.77894 -3.03516,8.47461c-0.88292,-0.28725 -1.7369,-0.58779 -2.52539,-0.91406c-2.54096,-1.05143 -4.56114,-2.29521 -5.89844,-3.60352c-1.3373,-1.30831 -1.97852,-2.62669 -1.97852,-3.95703c0,-1.33034 0.64121,-2.64872 1.97852,-3.95703c1.3373,-1.30831 3.35748,-2.55208 5.89844,-3.60352c0.78849,-0.32627 1.64247,-0.62681 2.52539,-0.91406zM49.5957,23.52539c0.88356,0.28741 1.73833,0.58757 2.52734,0.91406c2.54096,1.05143 4.56114,2.29521 5.89844,3.60352c1.3373,1.30831 1.97852,2.62669 1.97852,3.95703c0,1.33034 -0.64121,2.64872 -1.97852,3.95703c-1.3373,1.30831 -3.35748,2.55208 -5.89844,3.60352c-0.78849,0.32627 -1.64247,0.62681 -2.52539,0.91406c-0.712,-2.69577 -1.73583,-5.55104 -3.03711,-8.47461c1.30095,-2.92283 2.32318,-5.77944 3.03516,-8.47461zM32,25c-3.85415,0 -7,3.14585 -7,7c0,3.85415 3.14585,7 7,7c3.85415,0 7,-3.14585 7,-7c0,-3.85415 -3.14585,-7 -7,-7zM32,27c2.77327,0 5,2.22673 5,5c0,2.77327 -2.22673,5 -5,5c-2.77327,0 -5,-2.22673 -5,-5c0,-2.77327 2.22673,-5 5,-5zM45.42578,34.41602c0.94393,2.29586 1.69685,4.52612 2.25195,6.63477c-2.10441,0.5738 -4.41187,1.03864 -6.87305,1.36914c0.83973,-1.25794 1.66539,-2.55552 2.45312,-3.91992c0.78806,-1.36496 1.4982,-2.72724 2.16797,-4.08398zM18.57422,34.41797c0.66924,1.35546 1.37871,2.71838 2.16602,4.08203c0.78802,1.36489 1.61308,2.66157 2.45313,3.91992c-2.46045,-0.33048 -4.76724,-0.79549 -6.87109,-1.36914c0.55511,-2.10859 1.30805,-4.33702 2.25195,-6.63281zM15.86133,43.00195c2.69045,0.73117 5.67515,1.27457 8.85742,1.60938c1.88116,2.58856 3.84377,4.90279 5.82227,6.86719c-0.69029,0.62107 -1.37977,1.20875 -2.05664,1.72852c-2.18104,1.67482 -4.26668,2.80266 -6.06836,3.30664c-1.80168,0.50398 -3.26391,0.4015 -4.41602,-0.26367c-1.15211,-0.66517 -1.97508,-1.88107 -2.43945,-3.69336c-0.46438,-1.81229 -0.52983,-4.18391 -0.16992,-6.91016c0.11172,-0.84628 0.27792,-1.73594 0.4707,-2.64453zM48.13867,43.00195c0.19276,0.90848 0.35704,1.79834 0.46875,2.64453c0.35991,2.72625 0.29445,5.09786 -0.16992,6.91016c-0.46437,1.81229 -1.28539,3.02624 -2.4375,3.69141c-1.15211,0.66517 -2.61434,0.76961 -4.41602,0.26563c-1.80168,-0.50399 -3.88927,-1.63182 -6.07031,-3.30664c-0.67688,-0.51977 -1.36439,-1.10939 -2.05469,-1.73047c1.97836,-1.96451 3.94128,-4.27668 5.82227,-6.86523c3.18228,-0.3348 6.16697,-0.87821 8.85742,-1.60937zM8.61133,43.7168c-0.551,-0.074 -1.05105,0.31137 -1.12305,0.85938c-0.074,0.548 0.31137,1.05005 0.85937,1.12305l1.98242,0.26367c0.045,0.006 0.08881,0.00977 0.13281,0.00977c0.494,0 0.92423,-0.36714 0.99023,-0.86914c0.074,-0.548 -0.31137,-1.05005 -0.85937,-1.12305zM27.37891,44.83594c1.50983,0.09833 3.045,0.16406 4.62109,0.16406c1.57541,0 3.10992,-0.06581 4.61914,-0.16406c-1.51623,1.96528 -3.07063,3.73258 -4.61914,5.26758c-1.5488,-1.53518 -3.10458,-3.30194 -4.62109,-5.26758zM10.16016,48.81836l-1.99805,0.06836c-0.553,0.018 -0.9858,0.47925 -0.9668,1.03125c0.018,0.541 0.46205,0.9668 0.99805,0.9668c0.012,0 0.02516,0.001 0.03516,0l1.99805,-0.06836c0.553,-0.018 0.9858,-0.47925 0.9668,-1.03125c-0.018,-0.553 -0.4822,-1.0038 -1.0332,-0.9668zM11.02539,53.51172c-0.12934,-0.01322 -0.26203,-0.00048 -0.39453,0.04102l-1.91406,0.58398c-0.528,0.161 -0.82506,0.72005 -0.66406,1.24805c0.131,0.431 0.52803,0.70898 0.95703,0.70898c0.096,0 0.19302,-0.01492 0.29102,-0.04492l1.91406,-0.58398c0.528,-0.161 0.82606,-0.72005 0.66406,-1.24805c-0.12,-0.396 -0.46548,-0.66542 -0.85351,-0.70508zM13.14453,57.55273c-0.25513,-0.01913 -0.51756,0.05733 -0.72656,0.23633l-1.51758,1.30469c-0.419,0.359 -0.46642,0.99116 -0.10742,1.41016c0.198,0.231 0.47877,0.34766 0.75976,0.34766c0.231,0 0.46239,-0.08019 0.65039,-0.24219l1.51758,-1.30273c0.419,-0.359 0.46642,-0.99116 0.10742,-1.41016c-0.1805,-0.2095 -0.42847,-0.32462 -0.68359,-0.34375z"></path></g></g></svg>