<svg xmlns="http://www.w3.org/2000/svg" xmlns:xlink="http://www.w3.org/1999/xlink" viewBox="0,0,256,256" width="50px" height="50px"><g fill="#ffffff" fill-rule="nonzero" stroke="none" stroke-width="1" stroke-linecap="butt" stroke-linejoin="miter" stroke-miterlimit="10" stroke-dasharray="" stroke-dashoffset="0" font-family="none" font-weight="none" font-size="none" text-anchor="none" style="mix-blend-mode: normal"><g transform="scale(5.12,5.12)"><path d="M40.44922,3c-0.08984,-0.00391 -0.18359,0.00781 -0.27344,0.03125l-16.41016,4c-0.31641,0.07422 -0.57422,0.29688 -0.69141,0.59766l-1.75,4.37109h-5.32422c-0.27734,0 -0.54687,0.11719 -0.73437,0.32422l-12,13c-0.37109,0.39844 -0.35156,1.02344 0.04688,1.39844l12.57813,12c0.1875,0.17969 0.43359,0.27734 0.69141,0.27734h5.74219l1.75,4.37109c0.125,0.32422 0.41406,0.55469 0.75391,0.61328l17.46094,3c0.52734,0.09375 1.03125,-0.25 1.14844,-0.76953l3.53906,-16.23047c0.05469,-0.25 0.01172,-0.51562 -0.12109,-0.73437l-2.32812,-3.82031l2.375,-5c0.11328,-0.23828 0.12891,-0.51172 0.03906,-0.75781l-5.58203,-16c-0.13672,-0.39062 -0.5,-0.65625 -0.91016,-0.67187zM39.76953,5.1875l5.15234,14.75391l-1.47656,3.10547l-3.49219,-11.34375c-0.12891,-0.42578 -0.53125,-0.71484 -0.98047,-0.70312c-0.36719,0.01172 -0.70312,0.22266 -0.86719,0.55078l-7,14c-0.16016,0.32031 -0.13672,0.69922 0.05859,0.99609l8,12.21094c0.21875,0.33594 0.62109,0.50391 1.01563,0.43359c0.39063,-0.07031 0.70703,-0.37109 0.79297,-0.76172l2.48047,-10.91406l1.48438,2.43359l-3.25,14.90234l-15.96875,-2.74219l-1.11719,-2.79687l11.58203,2.15234c0.39453,0.07031 0.79688,-0.09766 1.01563,-0.43359c0.22266,-0.33984 0.22266,-0.77344 -0.00391,-1.10937l-8.36719,-12.48047c-0.18359,-0.27344 -0.49609,-0.44141 -0.82812,-0.44141h-16c-0.41406,0 -0.78516,0.25391 -0.93359,0.64063c-0.14844,0.38281 -0.04297,0.82031 0.26172,1.09766l9.08594,8.26172h-3.42969l-11.58203,-11.04687l11.03516,-11.95312h3.30078l-8.47656,9.32813c-0.26953,0.29297 -0.33594,0.71484 -0.17578,1.07813c0.16016,0.35938 0.51953,0.59375 0.91406,0.59375h16c0.37891,0 0.72656,-0.21484 0.89453,-0.55078l7,-14c0.15234,-0.30859 0.14063,-0.66797 -0.03516,-0.96094c-0.17578,-0.29297 -0.48437,-0.47656 -0.82812,-0.48828c-0.08594,-0.00391 -0.17187,0.00391 -0.25391,0.02344l-11.13672,2.57031l1.09375,-2.74219zM33.15625,11.45313l-5.77344,11.54688h-13.12109l8.26953,-9.09375zM38.78125,14.67969l3.18359,10.35937l-2.41797,10.65234l-6.39453,-9.75781zM14.58594,29h12.88281l6.74219,10.0625l-10.74609,-1.99609z"></path></g></g></svg>